<?xml version="1.0" encoding="UTF-8"?>
<!DOCTYPE svg PUBLIC "-//W3C//DTD SVG 1.1//EN" "http://www.w3.org/Graphics/SVG/1.1/DTD/svg11.dtd">
<svg xmlns="http://www.w3.org/2000/svg" version="1.1" width="200px" height="200px" style="shape-rendering:geometricPrecision; text-rendering:geometricPrecision; image-rendering:optimizeQuality; fill-rule:evenodd; clip-rule:evenodd" xmlns:xlink="http://www.w3.org/1999/xlink">
<g><path style="opacity:0.821" fill="#000000" d="M 11.5,27.5 C 20.0851,27.1834 28.5851,27.5168 37,28.5C 47.0078,59.0225 56.5078,89.6892 65.5,120.5C 96.5,120.5 127.5,120.5 158.5,120.5C 162.372,99.808 166.372,79.1414 170.5,58.5C 172.167,58.5 173.833,58.5 175.5,58.5C 172.125,80.8732 167.792,103.04 162.5,125C 130.828,125.167 99.1614,125.667 67.5,126.5C 69.941,133.324 72.2743,140.157 74.5,147C 103.831,147.5 133.165,147.667 162.5,147.5C 162.5,149.167 162.5,150.833 162.5,152.5C 158.818,152.335 155.152,152.501 151.5,153C 160.085,159.178 161.418,166.678 155.5,175.5C 147.05,182.566 139.216,181.899 132,173.5C 128.603,165.092 130.436,158.259 137.5,153C 124.5,152.333 111.5,152.333 98.5,153C 101.728,154.563 103.895,157.063 105,160.5C 107.038,173.457 101.538,179.957 88.5,180C 77.2071,175.397 74.3738,167.564 80,156.5C 81.4095,155.213 82.9095,154.046 84.5,153C 79.5821,152.805 74.7488,152.305 70,151.5C 57.3216,112.3 45.155,72.9665 33.5,33.5C 25.8045,33.8308 18.1378,33.4975 10.5,32.5C 9.28778,30.5716 9.62111,28.9049 11.5,27.5 Z M 89.5,156.5 C 98.4053,157.317 101.572,161.983 99,170.5C 93.2364,176.102 87.9031,175.769 83,169.5C 81.4934,163.179 83.66,158.846 89.5,156.5 Z M 142.5,156.5 C 150.491,156.654 153.991,160.654 153,168.5C 150.89,173.945 147.056,175.778 141.5,174C 135.628,170.984 134.128,166.484 137,160.5C 138.812,159.023 140.645,157.69 142.5,156.5 Z"/></g>
</svg>
