<?xml version="1.0" standalone="no"?>
<!DOCTYPE svg PUBLIC "-//W3C//DTD SVG 20010904//EN"
 "http://www.w3.org/TR/2001/REC-SVG-20010904/DTD/svg10.dtd">
<svg version="1.0" xmlns="http://www.w3.org/2000/svg"
 width="840.000000pt" height="880.000000pt" viewBox="0 0 840.000000 880.000000"
 preserveAspectRatio="xMidYMid meet">

<g transform="translate(0.000000,880.000000) scale(0.100000,-0.100000)"
fill="#000000" stroke="none">
<path d="M427 8366 c-141 -59 -217 -168 -217 -312 0 -116 79 -237 188 -291 49
-24 68 -28 142 -27 66 0 95 5 130 22 103 50 170 135 191 245 l12 57 451 0
c490 0 536 -4 636 -55 104 -53 189 -165 249 -332 16 -43 56 -188 89 -323 34
-135 158 -636 277 -1115 119 -478 265 -1068 325 -1310 106 -430 363 -1463 595
-2398 64 -257 130 -507 146 -555 70 -198 165 -334 292 -420 42 -27 81 -52 87
-54 8 -2 -7 -33 -39 -82 -151 -232 -140 -522 29 -748 83 -111 231 -206 380
-244 97 -25 262 -15 358 20 216 80 355 227 423 446 45 144 28 324 -42 461 -10
21 -19 43 -19 49 0 11 1002 15 1013 4 3 -4 -5 -29 -19 -56 -63 -125 -81 -300
-44 -442 30 -117 82 -207 175 -301 128 -130 283 -195 466 -195 181 0 334 64
464 195 93 93 145 183 175 301 24 94 26 225 5 309 -19 74 -73 186 -119 246
-30 40 -34 53 -34 102 1 66 -27 118 -75 145 -30 16 -131 17 -1422 22 -1243 5
-1396 7 -1442 22 -181 56 -250 141 -327 403 -36 123 -146 556 -146 575 0 7
489 10 1548 10 1453 0 1549 1 1582 18 50 25 68 57 149 273 40 107 192 507 336
889 591 1560 733 1936 739 1958 l7 22 -175 0 c-110 0 -176 -4 -176 -10 0 -5
-131 -355 -291 -777 -160 -423 -322 -849 -359 -948 -54 -144 -262 -693 -394
-1040 l-23 -60 -1507 -3 -1506 -2 -10 22 c-12 27 -689 2754 -714 2878 -19 88
-46 192 -71 270 -8 25 -98 378 -199 785 -102 407 -197 769 -211 805 -127 309
-289 462 -570 537 l-100 27 -675 3 -675 3 -58 -24z m6413 -6993 c173 -77 245
-286 158 -460 -31 -63 -116 -137 -180 -159 -68 -23 -168 -23 -236 0 -32 11
-73 36 -106 66 -175 161 -137 442 75 550 86 45 194 46 289 3z m-2158 -1 c64
-31 126 -96 157 -162 21 -46 26 -69 26 -140 0 -71 -4 -94 -26 -141 -121 -257
-487 -257 -608 0 -35 76 -37 201 -4 274 39 84 103 145 188 180 61 26 205 19
267 -11z"/>
</g>
</svg>
